#!OML:ASF X:\für Bonn\!DataBase\2005_08_11_Bastian_Final\c3d\Bastian.ASF
:FULLY-SPECIFIED
:DEGREES
48
root -21.6433 17.6115 -0.26008 151.857 -72.4638 -157.955
lowerback 4.3119 1.16387 6.76149
upperback 4.06363 1.57354 1.48854
thorax 1.93674 0.869973 -2.28753
lowerneck -11.1884 -1.32203 1.78277
upperneck -1.2146 -2.12202 0.731351
head 1.49842 -1.09546 -0.172065
rclavicle -7.19352e-015 -3.10104e-014
rhumerus 24.6204 20.4206 -61.7717
rradius 76.294
rwrist -0.81685
rhand -8.95253 -0.0345406
rfingers 7.12502
rthumb 16.9921 -29.3113
lclavicle -7.19352e-015 -3.10104e-014
lhumerus -26.0938 -14.9927 91.1736
lradius 27.5955
lwrist 15.7969
lhand -10.1015 -8.70843
lfingers 7.12502
lthumb 15.8859 20.66
rfemur -0.98814 6.74355 25.4683
rtibia 27.7508
rfoot -11.9174 -7.13826
rtoes -11.3438
lfemur 2.87528 5.55455 -13.1924
ltibia 23.6121
lfoot -13.3786 3.94347
ltoes -10.1335
49
root -21.6565 17.612 -0.253041 152.019 -72.3806 -158.068
lowerback 4.23496 1.30571 6.84548
upperback 4.01581 1.76693 1.37201
thorax 1.95454 0.972138 -2.45687
lowerneck -11.2398 -1.44233 1.79688
upperneck -1.108 -2.28642 0.82808
head 1.5424 -1.17288 -0.152939
rclavicle 1.9133e-015 9.74045e-015
rhumerus 27.3734 20.0492 -60.4655
rradius 75.5099
rwrist -1.44152
rhand -9.6855 0.274144
rfingers 7.12502
rthumb 16.2865 -29.0619
lclavicle 1.9133e-015 9.74045e-015
lhumerus -25.9942 -15.0969 91.0568
lradius 27.4319
lwrist 15.8397
lhand -10.1201 -8.74072
lfingers 7.12502
lthumb 15.868 20.6291
rfemur -1.0147 6.75333 25.4202
rtibia 27.7588
rfoot -11.9463 -7.04999
rtoes -11.4251
lfemur 2.88093 5.5546 -13.247
ltibia 23.606
lfoot -13.4476 4.04317
ltoes -10.1355
50
root -21.6688 17.6118 -0.247062 151.984 -72.3161 -157.994
lowerback 4.17502 1.42758 6.94094
upperback 3.98213 1.93296 1.27927
thorax 1.97602 1.06032 -2.60735
lowerneck -11.3109 -1.55163 1.82052
upperneck -1.01207 -2.43767 0.890924
head 1.58612 -1.24482 -0.145766
rclavicle -2.03506e-014 7.55382e-015
rhumerus 30.1258 19.7321 -59.0298
rradius 74.6469
rwrist -2.28129
rhand -10.7465 0.308223
rfingers 7.12502
rthumb 15.2647 -29.1085
lclavicle -2.03506e-014 7.55382e-015
lhumerus -25.8663 -15.1613 90.9453
lradius 27.2418
lwrist 15.9498
lhand -10.1518 -8.75097
lfingers 7.12502
lthumb 15.8375 20.6213
rfemur -1.01385 6.84889 25.4507
rtibia 27.7716
rfoot -11.9827 -7.07638
rtoes -11.3114
lfemur 2.89814 5.63033 -13.2173
ltibia 23.5912
lfoot -13.454 4.04172
ltoes -10.1783
51
root -21.6819 17.6119 -0.241404 152.058 -72.2437 -158.014
lowerback 4.094 1.56561 7.02275
upperback 3.94486 2.11915 1.17524
thorax 2.00852 1.15891 -2.76123
lowerneck -11.4117 -1.66846 1.83104
upperneck -0.903231 -2.59923 0.978818
head 1.63997 -1.32097 -0.129588
rclavicle -2.79168e-014 -5.96354e-015
rhumerus 32.7744 19.3908 -57.6124
rradius 73.5873
rwrist -2.75198
rhand -12.1252 0.274485
rfingers 7.12502
rthumb 13.9363 -29.2385
lclavicle -2.79168e-014 -5.96354e-015
lhumerus -25.7342 -15.2485 90.8344
lradius 26.997
lwrist 16.0564
lhand -10.196 -8.75378
lfingers 7.12502
lthumb 15.7949 20.6218
rfemur -1.03073 6.95652 25.4513
rtibia 27.7832
rfoot -12.0169 -7.09646
rtoes -11.2884
lfemur 2.90252 5.64494 -13.2366
ltibia 23.5801
lfoot -13.5122 4.10421
ltoes -10.1887
52
root -21.6948 17.6131 -0.235998 152.151 -72.2083 -158.062
lowerback 4.02817 1.70231 7.07536
upperback 3.90621 2.30443 1.06265
thorax 2.03112 1.25621 -2.90777
lowerneck -11.5074 -1.79482 1.84076
upperneck -0.790103 -2.77392 1.08299
head 1.69477 -1.403 -0.108932
rclavicle 9.52924e-015 -8.15017e-015
rhumerus 35.2397 18.9451 -56.3293
rradius 72.5928
rwrist -3.11471
rhand -13.2928 0.0379806
rfingers 7.12502
rthumb 12.8109 -29.5489
lclavicle 9.52924e-015 -8.15017e-015
lhumerus -25.5946 -15.3764 90.7291
lradius 26.7072
lwrist 16.2261
lhand -10.2573 -8.7499
lfingers 7.12502
lthumb 15.7359 20.6304
rfemur -1.04889 7.02399 25.424
rtibia 27.7967
rfoot -12.053 -7.08879
rtoes -11.1668
lfemur 2.90254 5.70718 -13.2633
ltibia 23.5706
lfoot -13.5245 4.11258
ltoes -10.1883
53
root -21.7075 17.613 -0.230409 152.126 -72.155 -157.996
lowerback 3.98412 1.84244 7.1575
upperback 3.86276 2.49601 0.975805
thorax 2.03873 1.35603 -3.04469
lowerneck -11.5969 -1.92654 1.83018
upperneck -0.689255 -2.95219 1.16049
head 1.74459 -1.48758 -0.0934258
rclavicle -2.3469e-014 -7.15625e-015
rhumerus 37.5545 18.4138 -55.1471
rradius 71.5199
rwrist -3.39735
rhand -14.3861 -0.0749001
rfingers 7.12502
rthumb 11.7568 -29.7249
lclavicle -2.3469e-014 -7.15625e-015
lhumerus -25.4475 -15.4456 90.6612
lradius 26.3418
lwrist 16.317
lhand -10.4191 -8.7812
lfingers 7.12502
lthumb 15.58 20.6113
rfemur -1.0537 7.08339 25.4376
rtibia 27.8108
rfoot -12.0917 -7.09193
rtoes -11.1432
lfemur 2.91353 5.71386 -13.2603
ltibia 23.5612
lfoot -13.5611 4.15206
ltoes -10.2547
54
root -21.7204 17.613 -0.225353 152.177 -72.1232 -158.023
lowerback 3.95646 1.99175 7.2339
upperback 3.82491 2.70173 0.845103
thorax 2.04764 1.46382 -3.22407
lowerneck -11.7073 -2.06356 1.8512
upperneck -0.585898 -3.14477 1.28791
head 1.79953 -1.57791 -0.0687624
rclavicle -1.2598e-014 -9.14409e-015
rhumerus 39.71 17.7742 -54.1173
rradius 70.3435
rwrist -3.58453
rhand -15.0163 -0.242751
rfingers 7.12502
rthumb 11.1491 -29.9266
lclavicle -1.2598e-014 -9.14409e-015
lhumerus -25.3159 -15.6253 90.559
lradius 25.9872
lwrist 16.483
lhand -10.5857 -8.76468
lfingers 7.12502
lthumb 15.4196 20.6402
rfemur -1.04588 7.13338 25.4202
rtibia 27.826
rfoot -12.1204 -7.10982
rtoes -11.2947
lfemur 2.93979 5.70972 -13.2951
ltibia 23.5511
lfoot -13.612 4.21285
ltoes -10.3185
55
root -21.733 17.6131 -0.220258 152.145 -72.1209 -157.945
lowerback 3.90092 2.12816 7.31387
upperback 3.79519 2.88684 0.728441
thorax 2.0793 1.56192 -3.38904
lowerneck -11.8408 -2.20374 1.88196
upperneck -0.486473 -3.34285 1.37804
head 1.85679 -1.67194 -0.0583783
rclavicle -4.46769e-014 8.74653e-015
rhumerus 41.7749 17.0782 -53.13
rradius 69.0512
rwrist -3.6521
rhand -15.4907 -0.331777
rfingers 7.12502
rthumb 10.6915 -30.0397
lclavicle -4.46769e-014 8.74653e-015
lhumerus -25.1489 -15.762 90.4642
lradius 25.568
lwrist 16.5658
lhand -10.8107 -8.80206
lfingers 7.12502
lthumb 15.2028 20.6194
rfemur -1.05167 7.21013 25.4267
rtibia 27.8373
rfoot -12.1529 -7.1711
rtoes -11.2831
lfemur 2.92874 5.76761 -13.2905
ltibia 23.5526
lfoot -13.6138 4.17775
ltoes -10.3782
56
root -21.7456 17.613 -0.214214 152.078 -72.1466 -157.848
lowerback 3.88263 2.25681 7.40311
upperback 3.75397 3.06578 0.603958
thorax 2.07974 1.65601 -3.56888
lowerneck -11.9982 -2.34982 1.88973
upperneck -0.339061 -3.54819 1.50707
head 1.93583 -1.76717 -0.0332936
rclavicle 9.41742e-015 -7.55382e-015
rhumerus 43.6983 16.3394 -52.2307
rradius 67.6472
rwrist -3.67639
rhand -15.9773 -0.232759
rfingers 7.12502
rthumb 10.222 -29.9644
lclavicle 9.41742e-015 -7.55382e-015
lhumerus -25.0137 -15.9695 90.3825
lradius 25.1341
lwrist 16.7241
lhand -11.0398 -8.83338
lfingers 7.12502
lthumb 14.9821 20.6047
rfemur -1.04142 7.26509 25.4251
rtibia 27.8485
rfoot -12.1857 -7.24859
rtoes -11.3042
lfemur 2.93132 5.7415 -13.3119
ltibia 23.5566
lfoot -13.6558 4.17995
ltoes -10.3855
57
root -21.7579 17.6127 -0.20898 152.049 -72.1721 -157.79
lowerback 3.85872 2.39273 7.4785
upperback 3.71937 3.25306 0.477157
thorax 2.09189 1.75443 -3.74282
lowerneck -12.1282 -2.49367 1.8875
upperneck -0.234509 -3.74858 1.63198
head 1.99624 -1.86084 -0.00698494
rclavicle -6.65929e-015 7.55382e-015
rhumerus 45.5187 15.5705 -51.3505
rradius 66.1713
rwrist -3.66526
rhand -16.4182 -0.102885
rfingers 7.12502
rthumb 9.79668 -29.855
lclavicle -6.65929e-015 7.55382e-015
lhumerus -24.8293 -16.0679 90.2753
lradius 24.6244
lwrist 16.7211
lhand -11.2401 -8.88508
lfingers 7.12502
lthumb 14.7891 20.5672
rfemur -1.02761 7.31724 25.4127
rtibia 27.8614
rfoot -12.2173 -7.29866
rtoes -11.2259
lfemur 2.93145 5.7601 -13.3358
ltibia 23.5636
lfoot -13.6573 4.181
ltoes -10.5491
58
root -21.7703 17.6126 -0.203254 151.923 -72.1928 -157.621
lowerback 3.8413 2.52324 7.59639
upperback 3.67256 3.43531 0.349218
thorax 2.09143 1.85063 -3.94204
lowerneck -12.2673 -2.63959 1.90372
upperneck -0.113711 -3.95529 1.75943
head 2.06386 -1.95697 0.0160297
rclavicle 3.84648e-014 1.27222e-014
rhumerus 47.2564 14.7953 -50.5292
rradius 64.6393
rwrist -3.66771
rhand -16.6937 0.012992
rfingers 7.12502
rthumb 9.53086 -29.7515
lclavicle 3.84648e-014 1.27222e-014
lhumerus -24.6774 -16.238 90.1717
lradius 24.1385
lwrist 16.8496
lhand -11.4125 -8.90939
lfingers 7.12502
lthumb 14.6231 20.555
rfemur -1.03007 7.349 25.4313
rtibia 27.8739
rfoot -12.2503 -7.35998
rtoes -11.2306
lfemur 2.91836 5.7932 -13.3156
ltibia 23.571
lfoot -13.6827 4.11988
ltoes -10.6526
